# xmcd CD database file
#
# Track frame offsets:
#	150
#	15259
#	31269
#	51657
#	70617
#	92112
#	108450
#	126290
#	144945
#	166377
#	179522
#	195859
#	208645
#	223690
#	238880
#	256140
#	270670
#	282717
#	296572
#	306357
#
# Disc length: 4273 seconds
#
# Revision: 0
# Processed by: cddbd v1.5.2PL0 Copyright (c) Steve Scherf et al.
# Submitted via: CDex 1.70beta2
#
DISCID=3010af14
DTITLE=Vic Lewis - The Golden Years
DYEAR=1999
DGENRE=Jazz
TTITLE0=I Found a New Baby
TTITLE1=I Never Knew
TTITLE2=It's the Talk of the Town
TTITLE3=Tri-Colour Blues
TTITLE4=Rosetta
TTITLE5=Down by the Old Mill Stream
TTITLE6=Johnny's Blues
TTITLE7=Mean To Me
TTITLE8=Yellow Dog Blues
TTITLE9=The World is Waiting for the Sunrise
TTITLE10=Max Blues
TTITLE11=I've Found a New Baby
TTITLE12=I Got Rhythm
TTITLE13=Rose Room
TTITLE14=Sweet Lorraine
TTITLE15=Jazz Me Blues
TTITLE16=I Ain't Got Nobody
TTITLE17=Stooge Blues
TTITLE18=Shine On, Harvest Moon
TTITLE19=Angry
EXTD=YEAR: 1999
EXTT0=
EXTT1=
EXTT2=
EXTT3=
EXTT4=
EXTT5=
EXTT6=
EXTT7=
EXTT8=
EXTT9=
EXTT10=
EXTT11=
EXTT12=
EXTT13=
EXTT14=
EXTT15=
EXTT16=
EXTT17=
EXTT18=
EXTT19=
PLAYORDER=
